<svg id="图层_1" data-name="图层 1" xmlns="http://www.w3.org/2000/svg" viewBox="0 0 1159.71 896.14"><defs><style>.cls-1{opacity:0.94;}</style></defs><title>ys</title><g class="cls-1"><polygon points="431.04 541.12 443.71 541.12 437.41 525.41 431.04 541.12"/><polygon points="431.04 607.95 443.71 607.95 437.41 592.24 431.04 607.95"/><polygon points="431.04 474.29 443.71 474.29 437.41 458.57 431.04 474.29"/><polygon points="431.04 407.45 443.71 407.45 437.41 391.74 431.04 407.45"/><polygon points="431.04 340.62 443.71 340.62 437.41 324.91 431.04 340.62"/><polygon points="431.04 674.79 443.71 674.79 437.41 659.07 431.04 674.79"/><polygon points="431.04 273.79 443.71 273.79 437.41 258.07 431.04 273.79"/><path d="M7.6,168.79V769.13H1154.16V168.79ZM383.28,247l9.88,13.54L403.06,247h13.76L400,270.28V290H387V270.53L369.8,247Zm0,66.83,9.88,13.54,9.91-13.54h13.76L400,337.11v19.72H387V337.36L369.8,313.79Zm0,66.83,9.88,13.54,9.91-13.54h13.76L400,403.95v19.72H387V404.19L369.8,380.62Zm0,66.83L393.15,461l9.91-13.54h13.76L400,470.78V490.5H387V471L369.8,447.46Zm0,66.83,9.88,13.54,9.91-13.54h13.76L400,537.61v19.72H387V537.86L369.8,514.29Zm0,66.83,9.88,13.54,9.91-13.54h13.76L400,604.44v19.72H387V604.69L369.8,581.12ZM400,691H387V671.53L369.8,648h13.48l9.88,13.54L403.06,648h13.76L400,671.28Zm50.25,0-3.51-8.73H428L424.43,691H411.13l19-43h14.35l19,43Zm0-66.83-3.51-8.73H428l-3.57,8.73H411.13l19-43h14.35l19,43Zm0-66.83-3.51-8.73H428l-3.57,8.73H411.13l19-43h14.35l19,43Zm0-66.83-3.51-8.73H428l-3.57,8.73H411.13l19-43h14.35l19,43Zm0-66.83-3.51-8.73H428l-3.57,8.73H411.13l19-43h14.35l19,43Zm0-66.83-3.51-8.73H428l-3.57,8.73H411.13l19-43h14.35l19,43Zm0-66.83-3.51-8.73H428L424.43,290H411.13l19-43h14.35l19,43Zm65.75,401H504.4l-22.33-24v24H469.21V648h11.52L503,671.81V648h13Zm0-66.83H504.4l-22.33-24v24H469.21v-43h11.52L503,605V581.12h13Zm0-66.83H504.4l-22.33-24v24H469.21v-43h11.52L503,538.14V514.29h13Zm0-66.83H504.4l-22.33-24v24H469.21v-43h11.52L503,471.31V447.46h13Zm0-66.83H504.4l-22.33-24v24H469.21v-43h11.52L503,404.47V380.62h13Zm0-66.83H504.4l-22.33-24v24H469.21v-43h11.52L503,337.64V313.79h13Zm0-66.83H504.4l-22.33-24v24H469.21V247h11.52L503,270.81V247h13Zm51.4,398q-1.4.53-2.39.87t-1.91.62q-.92.28-2.66.71a56,56,0,0,1-5.89,1,51.41,51.41,0,0,1-6.2.36,30.32,30.32,0,0,1-12.11-2.39,19.89,19.89,0,0,1-8.9-7.42A21.86,21.86,0,0,1,524,669.38a26,26,0,0,1,1.72-9.27,16.23,16.23,0,0,1,5.26-7.28,24.47,24.47,0,0,1,5.92-3.46,25.41,25.41,0,0,1,5.85-1.6,45.32,45.32,0,0,1,6.3-.4,42.72,42.72,0,0,1,9.38.85q3.7.85,8.11,2.25v10.19a35.73,35.73,0,0,0-6.18-2.86,24.76,24.76,0,0,0-8.14-1.15,16.68,16.68,0,0,0-9,2.13,11.79,11.79,0,0,0-4.69,5.08,14,14,0,0,0-1.32,5.71,12.2,12.2,0,0,0,1.52,6,11.13,11.13,0,0,0,4.6,4.41,15.42,15.42,0,0,0,7.42,1.66A23.27,23.27,0,0,0,556,681v-5.06h-5.84v-8.66h17.17Zm0-66.83q-1.4.53-2.39.87t-1.91.62q-.92.28-2.66.71a56,56,0,0,1-5.89,1,51.41,51.41,0,0,1-6.2.36,30.32,30.32,0,0,1-12.11-2.39,19.89,19.89,0,0,1-8.9-7.42A21.86,21.86,0,0,1,524,602.55a26,26,0,0,1,1.72-9.27,16.23,16.23,0,0,1,5.26-7.28,24.47,24.47,0,0,1,5.92-3.46,25.41,25.41,0,0,1,5.85-1.6,45.32,45.32,0,0,1,6.3-.4,42.72,42.72,0,0,1,9.38.85q3.7.85,8.11,2.25v10.19a35.73,35.73,0,0,0-6.18-2.86,24.76,24.76,0,0,0-8.14-1.15,16.68,16.68,0,0,0-9,2.13,11.79,11.79,0,0,0-4.69,5.08,14,14,0,0,0-1.32,5.71,12.2,12.2,0,0,0,1.52,6,11.13,11.13,0,0,0,4.6,4.41,15.42,15.42,0,0,0,7.42,1.66,23.27,23.27,0,0,0,5.28-.65V609.1h-5.84v-8.66h17.17Zm0-66.83q-1.4.53-2.39.87t-1.91.62q-.92.28-2.66.71a56,56,0,0,1-5.89,1,51.41,51.41,0,0,1-6.2.36,30.32,30.32,0,0,1-12.11-2.39,19.89,19.89,0,0,1-8.9-7.42A21.86,21.86,0,0,1,524,535.72a26,26,0,0,1,1.72-9.27,16.23,16.23,0,0,1,5.26-7.28,24.47,24.47,0,0,1,5.92-3.46,25.41,25.41,0,0,1,5.85-1.6,45.32,45.32,0,0,1,6.3-.4,42.72,42.72,0,0,1,9.38.85q3.7.85,8.11,2.25V527a35.73,35.73,0,0,0-6.18-2.86,24.76,24.76,0,0,0-8.14-1.15,16.68,16.68,0,0,0-9,2.13,11.79,11.79,0,0,0-4.69,5.08,14,14,0,0,0-1.32,5.71,12.2,12.2,0,0,0,1.52,6,11.13,11.13,0,0,0,4.6,4.41,15.42,15.42,0,0,0,7.42,1.66,23.27,23.27,0,0,0,5.28-.65v-5.06h-5.84v-8.66h17.17Zm0-66.83q-1.4.53-2.39.87t-1.91.62q-.92.28-2.66.71a56,56,0,0,1-5.89,1,51.41,51.41,0,0,1-6.2.36,30.32,30.32,0,0,1-12.11-2.39,19.89,19.89,0,0,1-8.9-7.42A21.86,21.86,0,0,1,524,468.88a26,26,0,0,1,1.72-9.27,16.23,16.23,0,0,1,5.26-7.28,24.47,24.47,0,0,1,5.92-3.46,25.41,25.41,0,0,1,5.85-1.6,45.32,45.32,0,0,1,6.3-.4,42.72,42.72,0,0,1,9.38.85q3.7.85,8.11,2.25v10.19a35.73,35.73,0,0,0-6.18-2.86,24.76,24.76,0,0,0-8.14-1.15,16.68,16.68,0,0,0-9,2.13,11.79,11.79,0,0,0-4.69,5.08,14,14,0,0,0-1.32,5.71,12.2,12.2,0,0,0,1.52,6,11.13,11.13,0,0,0,4.6,4.41,15.42,15.42,0,0,0,7.42,1.66,23.27,23.27,0,0,0,5.28-.65v-5.06h-5.84v-8.66h17.17Zm0-66.83q-1.4.53-2.39.87t-1.91.62q-.92.28-2.66.71a56,56,0,0,1-5.89,1,51.41,51.41,0,0,1-6.2.36,30.32,30.32,0,0,1-12.11-2.39,19.89,19.89,0,0,1-8.9-7.42A21.86,21.86,0,0,1,524,402.05a26,26,0,0,1,1.72-9.27,16.23,16.23,0,0,1,5.26-7.28,24.47,24.47,0,0,1,5.92-3.46,25.41,25.41,0,0,1,5.85-1.6,45.32,45.32,0,0,1,6.3-.4,42.72,42.72,0,0,1,9.38.85q3.7.85,8.11,2.25v10.19a35.73,35.73,0,0,0-6.18-2.86,24.76,24.76,0,0,0-8.14-1.15,16.68,16.68,0,0,0-9,2.13,11.79,11.79,0,0,0-4.69,5.08,14,14,0,0,0-1.32,5.71,12.2,12.2,0,0,0,1.52,6,11.13,11.13,0,0,0,4.6,4.41,15.42,15.42,0,0,0,7.42,1.66,23.27,23.27,0,0,0,5.28-.65V408.6h-5.84v-8.66h17.17Zm0-66.83q-1.4.53-2.39.87t-1.91.62q-.92.28-2.66.71a56,56,0,0,1-5.89,1,51.41,51.41,0,0,1-6.2.36A30.32,30.32,0,0,1,536.2,355a19.89,19.89,0,0,1-8.9-7.42A21.86,21.86,0,0,1,524,335.22a26,26,0,0,1,1.72-9.27,16.23,16.23,0,0,1,5.26-7.28,24.47,24.47,0,0,1,5.92-3.46,25.41,25.41,0,0,1,5.85-1.6,45.32,45.32,0,0,1,6.3-.4,42.72,42.72,0,0,1,9.38.85q3.7.85,8.11,2.25v10.19a35.73,35.73,0,0,0-6.18-2.86,24.76,24.76,0,0,0-8.14-1.15,16.68,16.68,0,0,0-9,2.13,11.79,11.79,0,0,0-4.69,5.08,14,14,0,0,0-1.32,5.71,12.2,12.2,0,0,0,1.52,6,11.13,11.13,0,0,0,4.6,4.41,15.42,15.42,0,0,0,7.42,1.66,23.27,23.27,0,0,0,5.28-.65v-5.06h-5.84v-8.66h17.17Zm0-66.83q-1.4.53-2.39.87t-1.91.62q-.92.28-2.66.71a56,56,0,0,1-5.89,1,51.41,51.41,0,0,1-6.2.36,30.32,30.32,0,0,1-12.11-2.39,19.89,19.89,0,0,1-8.9-7.42A21.86,21.86,0,0,1,524,268.38a26,26,0,0,1,1.72-9.27,16.23,16.23,0,0,1,5.26-7.28,24.46,24.46,0,0,1,5.92-3.46,25.41,25.41,0,0,1,5.85-1.6,45.32,45.32,0,0,1,6.3-.4,42.72,42.72,0,0,1,9.38.85q3.7.85,8.11,2.25v10.19a35.73,35.73,0,0,0-6.18-2.86,24.76,24.76,0,0,0-8.14-1.15,16.68,16.68,0,0,0-9,2.13,11.79,11.79,0,0,0-4.69,5.08,14,14,0,0,0-1.32,5.71,12.2,12.2,0,0,0,1.52,6,11.13,11.13,0,0,0,4.6,4.41,15.42,15.42,0,0,0,7.42,1.66A23.27,23.27,0,0,0,556,280v-5.06h-5.84v-8.66h17.17Zm57.13,398.51a13,13,0,0,1-5.76,4.52,21.55,21.55,0,0,1-8.48,1.57q-1.34,0-3.28-.17a37,37,0,0,1-5.16-.95,40.4,40.4,0,0,1-6.69-2.3V677.58a47.11,47.11,0,0,0,6.41,3.35,17.13,17.13,0,0,0,6.75,1.34q3.32,0,4.3-1.1a3.23,3.23,0,0,0,1-2.07,3.52,3.52,0,0,0-1.68-2.93A23.9,23.9,0,0,0,607,673.7a38.57,38.57,0,0,1-6.21-3.25,14.71,14.71,0,0,1-4.36-4.39,11.31,11.31,0,0,1-1.69-6.24A11.42,11.42,0,0,1,601.66,649a19.77,19.77,0,0,1,8.57-1.68,29.9,29.9,0,0,1,6.66.7,28.89,28.89,0,0,1,5,1.57,20.2,20.2,0,0,1,2.73,1.37v10.09a35.47,35.47,0,0,0-5.89-3.39,16.43,16.43,0,0,0-6.94-1.49,5.35,5.35,0,0,0-3.51.93,2.91,2.91,0,0,0-1.09,2.3,2.82,2.82,0,0,0,1.09,2.2,19.07,19.07,0,0,0,3.88,2.27,77.59,77.59,0,0,1,8,4.19,15.71,15.71,0,0,1,4.67,4.3,10.39,10.39,0,0,1,1.69,6.07A11.87,11.87,0,0,1,624.47,685.47Zm0-66.83a13,13,0,0,1-5.76,4.52,21.55,21.55,0,0,1-8.48,1.57q-1.34,0-3.28-.17a37,37,0,0,1-5.16-.95,40.41,40.41,0,0,1-6.69-2.3V610.75a47.11,47.11,0,0,0,6.41,3.35,17.13,17.13,0,0,0,6.75,1.34q3.32,0,4.3-1.1a3.23,3.23,0,0,0,1-2.07,3.52,3.52,0,0,0-1.68-2.93,23.9,23.9,0,0,0-4.88-2.47,38.57,38.57,0,0,1-6.21-3.25,14.71,14.71,0,0,1-4.36-4.39,11.31,11.31,0,0,1-1.69-6.24,11.42,11.42,0,0,1,6.93-10.78,19.77,19.77,0,0,1,8.57-1.68,29.9,29.9,0,0,1,6.66.7,28.88,28.88,0,0,1,5,1.57,20.2,20.2,0,0,1,2.73,1.37v10.09a35.47,35.47,0,0,0-5.89-3.39,16.43,16.43,0,0,0-6.94-1.49,5.35,5.35,0,0,0-3.51.93,2.91,2.91,0,0,0-1.09,2.3,2.82,2.82,0,0,0,1.09,2.2,19.07,19.07,0,0,0,3.88,2.27,77.59,77.59,0,0,1,8,4.19,15.71,15.71,0,0,1,4.67,4.3,10.39,10.39,0,0,1,1.69,6.07A11.87,11.87,0,0,1,624.47,618.64Zm0-66.83a13,13,0,0,1-5.76,4.52,21.55,21.55,0,0,1-8.48,1.57q-1.34,0-3.28-.17a37,37,0,0,1-5.16-.95,40.41,40.41,0,0,1-6.69-2.3V543.92a47.11,47.11,0,0,0,6.41,3.35,17.13,17.13,0,0,0,6.75,1.34q3.32,0,4.3-1.1a3.23,3.23,0,0,0,1-2.07,3.52,3.52,0,0,0-1.68-2.93A23.9,23.9,0,0,0,607,540a38.57,38.57,0,0,1-6.21-3.25,14.71,14.71,0,0,1-4.36-4.39,11.31,11.31,0,0,1-1.69-6.24,11.42,11.42,0,0,1,6.93-10.78,19.77,19.77,0,0,1,8.57-1.68,29.9,29.9,0,0,1,6.66.7,28.88,28.88,0,0,1,5,1.57,20.2,20.2,0,0,1,2.73,1.37v10.09a35.47,35.47,0,0,0-5.89-3.39,16.43,16.43,0,0,0-6.94-1.49,5.35,5.35,0,0,0-3.51.93,2.91,2.91,0,0,0-1.09,2.3,2.82,2.82,0,0,0,1.09,2.2,19.07,19.07,0,0,0,3.88,2.27,77.6,77.6,0,0,1,8,4.19,15.71,15.71,0,0,1,4.67,4.3,10.39,10.39,0,0,1,1.69,6.07A11.87,11.87,0,0,1,624.47,551.8Zm0-66.83a13,13,0,0,1-5.76,4.52,21.55,21.55,0,0,1-8.48,1.57q-1.34,0-3.28-.17a37,37,0,0,1-5.16-.95,40.41,40.41,0,0,1-6.69-2.3V477.08a47.1,47.1,0,0,0,6.41,3.35,17.13,17.13,0,0,0,6.75,1.34q3.32,0,4.3-1.1a3.23,3.23,0,0,0,1-2.07,3.52,3.52,0,0,0-1.68-2.93A23.9,23.9,0,0,0,607,473.2a38.57,38.57,0,0,1-6.21-3.25,14.71,14.71,0,0,1-4.36-4.39,11.31,11.31,0,0,1-1.69-6.24,11.42,11.42,0,0,1,6.93-10.78,19.77,19.77,0,0,1,8.57-1.68,29.9,29.9,0,0,1,6.66.7,28.88,28.88,0,0,1,5,1.57,20.2,20.2,0,0,1,2.73,1.37v10.09a35.46,35.46,0,0,0-5.89-3.39,16.43,16.43,0,0,0-6.94-1.49,5.35,5.35,0,0,0-3.51.93,2.91,2.91,0,0,0-1.09,2.3,2.82,2.82,0,0,0,1.09,2.2,19.07,19.07,0,0,0,3.88,2.27,77.6,77.6,0,0,1,8,4.19,15.71,15.71,0,0,1,4.67,4.3,10.39,10.39,0,0,1,1.69,6.07A11.87,11.87,0,0,1,624.47,485Zm0-66.83a13,13,0,0,1-5.76,4.52,21.55,21.55,0,0,1-8.48,1.57q-1.34,0-3.28-.17a37,37,0,0,1-5.16-.95,40.41,40.41,0,0,1-6.69-2.3V410.25a47.11,47.11,0,0,0,6.41,3.35,17.13,17.13,0,0,0,6.75,1.34q3.32,0,4.3-1.1a3.23,3.23,0,0,0,1-2.07,3.52,3.52,0,0,0-1.68-2.93,23.9,23.9,0,0,0-4.88-2.47,38.57,38.57,0,0,1-6.21-3.25,14.71,14.71,0,0,1-4.36-4.39,11.31,11.31,0,0,1-1.69-6.24,11.42,11.42,0,0,1,6.93-10.78,19.77,19.77,0,0,1,8.57-1.68,29.9,29.9,0,0,1,6.66.7,28.88,28.88,0,0,1,5,1.57,20.2,20.2,0,0,1,2.73,1.37v10.09a35.46,35.46,0,0,0-5.89-3.39,16.43,16.43,0,0,0-6.94-1.49,5.35,5.35,0,0,0-3.51.93,2.91,2.91,0,0,0-1.09,2.3,2.82,2.82,0,0,0,1.09,2.2,19.07,19.07,0,0,0,3.88,2.27,77.6,77.6,0,0,1,8,4.19,15.71,15.71,0,0,1,4.67,4.3,10.39,10.39,0,0,1,1.69,6.07A11.87,11.87,0,0,1,624.47,418.14Zm0-66.83a13,13,0,0,1-5.76,4.52,21.55,21.55,0,0,1-8.48,1.57q-1.34,0-3.28-.17a37,37,0,0,1-5.16-.95,40.41,40.41,0,0,1-6.69-2.3V343.42a47.11,47.11,0,0,0,6.41,3.35,17.13,17.13,0,0,0,6.75,1.34q3.32,0,4.3-1.1a3.23,3.23,0,0,0,1-2.07,3.52,3.52,0,0,0-1.68-2.93,23.9,23.9,0,0,0-4.88-2.47,38.57,38.57,0,0,1-6.21-3.25,14.71,14.71,0,0,1-4.36-4.39,11.31,11.31,0,0,1-1.69-6.24,11.42,11.42,0,0,1,6.93-10.78,19.77,19.77,0,0,1,8.57-1.68,29.9,29.9,0,0,1,6.66.7,28.88,28.88,0,0,1,5,1.57,20.2,20.2,0,0,1,2.73,1.37v10.09a35.46,35.46,0,0,0-5.89-3.39,16.43,16.43,0,0,0-6.94-1.49,5.35,5.35,0,0,0-3.51.93,2.91,2.91,0,0,0-1.09,2.3,2.82,2.82,0,0,0,1.09,2.2,19.07,19.07,0,0,0,3.88,2.27,77.6,77.6,0,0,1,8,4.19,15.71,15.71,0,0,1,4.67,4.3,10.39,10.39,0,0,1,1.69,6.07A11.87,11.87,0,0,1,624.47,351.3Zm0-66.83a13,13,0,0,1-5.76,4.52,21.55,21.55,0,0,1-8.48,1.57q-1.34,0-3.28-.17a37,37,0,0,1-5.16-.95,40.41,40.41,0,0,1-6.69-2.3V276.58a47.11,47.11,0,0,0,6.41,3.35,17.13,17.13,0,0,0,6.75,1.34q3.32,0,4.3-1.1a3.23,3.23,0,0,0,1-2.07,3.52,3.52,0,0,0-1.68-2.93A23.9,23.9,0,0,0,607,272.7a38.57,38.57,0,0,1-6.21-3.25,14.71,14.71,0,0,1-4.36-4.39,11.31,11.31,0,0,1-1.69-6.24A11.42,11.42,0,0,1,601.66,248a19.77,19.77,0,0,1,8.57-1.68,29.9,29.9,0,0,1,6.66.7,28.89,28.89,0,0,1,5,1.57,20.2,20.2,0,0,1,2.73,1.37v10.09a35.46,35.46,0,0,0-5.89-3.39,16.43,16.43,0,0,0-6.94-1.49,5.35,5.35,0,0,0-3.51.93,2.91,2.91,0,0,0-1.09,2.3,2.82,2.82,0,0,0,1.09,2.21,19.07,19.07,0,0,0,3.88,2.27,77.6,77.6,0,0,1,8,4.19,15.71,15.71,0,0,1,4.67,4.3,10.39,10.39,0,0,1,1.69,6.07A11.87,11.87,0,0,1,624.47,284.47ZM680.83,691h-13V674.2H648.34V691h-13V648h13v15.81h19.53V648h13Zm0-66.83h-13v-16.8H648.34v16.8h-13v-43h13v15.81h19.53V581.12h13Zm0-66.83h-13v-16.8H648.34v16.8h-13v-43h13V530.1h19.53V514.29h13Zm0-66.83h-13V473.7H648.34v16.8h-13v-43h13v15.81h19.53V447.46h13Zm0-66.83h-13v-16.8H648.34v16.8h-13v-43h13v15.81h19.53V380.62h13Zm0-66.83h-13V340H648.34v16.8h-13v-43h13V329.6h19.53V313.79h13Zm0-66.83h-13V273.2H648.34V290h-13V247h13v15.81h19.53V247h13Zm43.26,401H691.63V648h31.93v8.63H704.61v7.89h18.07v8.66H704.61v9.19h19.47Zm0-66.83H691.63v-43h31.93v8.63H704.61v7.89h18.07v8.66H704.61v9.19h19.47Zm0-66.83H691.63v-43h31.93v8.63H704.61v7.89h18.07v8.66H704.61v9.19h19.47Zm0-66.83H691.63v-43h31.93v8.63H704.61V464h18.07v8.66H704.61v9.19h19.47Zm0-66.83H691.63v-43h31.93v8.63H704.61v7.89h18.07v8.66H704.61V415h19.47Zm0-66.83H691.63v-43h31.93v8.63H704.61v7.89h18.07V339H704.61v9.19h19.47Zm0-66.83H691.63V247h31.93v8.63H704.61v7.89h18.07v8.66H704.61v9.19h19.47Zm55.44,401H768l-22.33-24v24H732.78V648H744.3l22.27,23.85V648h13Zm0-66.83H768l-22.33-24v24H732.78v-43H744.3L766.57,605V581.12h13Zm0-66.83H768l-22.33-24v24H732.78v-43H744.3l22.27,23.85V514.29h13Zm0-66.83H768l-22.33-24v24H732.78v-43H744.3l22.27,23.85V447.46h13Zm0-66.83H768l-22.33-24v24H732.78v-43H744.3l22.27,23.85V380.62h13Zm0-66.83H768l-22.33-24v24H732.78v-43H744.3l22.27,23.85V313.79h13Zm0-66.83H768l-22.33-24v24H732.78V247H744.3l22.27,23.85V247h13Z"/></g></svg>